<svg width="400" height="200" viewBox="0 0 400 200" xmlns="http://www.w3.org/2000/svg">
    <rect width="100%" height="100%" fill="#f9f9f9" stroke="#ccc"/>
    
    <!-- Axes -->
    <line x1="40" y1="180" x2="380" y2="180" stroke="black" stroke-width="1"/>
    <line x1="40" y1="180" x2="40" y2="20" stroke="black" stroke-width="1"/>
    
    <!-- Curves -->
    <polyline points="40.0,52.0 62.66666666666667,84.0 85.33333333333334,108.0 108.0,124.0 130.66666666666669,135.2 153.33333333333331,144.8 176.0,151.2 198.66666666666666,156.0 221.33333333333334,160.8 244.0,164.0 266.66666666666663,165.6 289.3333333333333,167.2 312.0,168.0 334.6666666666667,168.8 357.3333333333333,169.12 " fill="none" stroke="blue" stroke-width="2"/>
    <polyline points="40.0,44.0 62.66666666666667,76.0 85.33333333333334,103.2 108.0,119.19999999999999 130.66666666666669,132.0 153.33333333333331,140.0 176.0,144.8 198.66666666666666,149.6 221.33333333333334,152.8 244.0,154.4 266.66666666666663,156.0 289.3333333333333,157.6 312.0,157.6 334.6666666666667,157.6 357.3333333333333,157.28 " fill="none" stroke="red" stroke-width="2" stroke-dasharray="5,5"/>
    
    <!-- Legend -->
    <rect x="280" y="30" width="100" height="40" fill="white" stroke="black" stroke-width="0.5"/>
    <line x1="290" y1="40" x2="310" y2="40" stroke="blue" stroke-width="2"/>
    <text x="315" y="45" font-family="Arial" font-size="10">Train Loss</text>
    <line x1="290" y1="60" x2="310" y2="60" stroke="red" stroke-width="2" stroke-dasharray="5,5"/>
    <text x="315" y="65" font-family="Arial" font-size="10">Val Loss</text>
    
    <text x="200" y="190" text-anchor="middle" font-family="Arial" font-size="12">Epochs</text>
    <text x="15" y="100" text-anchor="middle" font-family="Arial" font-size="12" transform="rotate(-90 15,100)">Loss</text>
    </svg>